<svg viewBox="0 0 91 91" xml:space="preserve" xmlns="http://www.w3.org/2000/svg"><path d="M32.647 33.9a2.516 2.516 0 0 0 3.159-1.631c.955-2.994 1.986-4.192 4.416-5.127a2.512 2.512 0 1 0-1.805-4.689c-4.498 1.73-6.211 4.564-7.398 8.289a2.512 2.512 0 0 0 1.628 3.158z" fill="#ffffff" class="fill-000000"></path><path d="M19.95 56.568c1.965 5.912 13.814 8.996 25.537 8.996s23.572-3.084 25.537-8.996c11.404-2.58 19.602-7.064 19.602-13.352 0-5.975-7.811-10.938-21.471-13.732-2.631-9.051-10.633-15.738-20.664-16.86a6.392 6.392 0 0 0 3.467-5.674A6.396 6.396 0 0 0 45.569.561 6.397 6.397 0 0 0 39.18 6.95a6.389 6.389 0 0 0 3.436 5.658c-10.092 1.077-18.15 7.781-20.795 16.868C13.313 31.214.346 35.182.346 43.216c.001 6.288 8.198 10.772 19.604 13.352zm25.537 3.971c-7.029 0-12.301-1.055-15.785-2.311 5.07.617 10.434.932 15.785.932 5.35 0 10.713-.314 15.785-.932-3.484 1.256-8.757 2.311-15.785 2.311zm.082-54.952a1.363 1.363 0 1 1 0 2.722 1.363 1.363 0 0 1 0-2.722zM42.974 17.63v.428a2.513 2.513 0 0 0 5.026 0v-.428c9.881 1.101 17.059 8.627 17.059 18.386 0 1.419-4.09 4.102-19.57 4.102-15.482 0-19.572-2.683-19.572-4.102-.002-9.759 7.176-17.285 17.057-18.386zM20.921 34.822c-.02.395-.031.793-.031 1.194 0 8.183 14.039 9.128 24.598 9.128s24.596-.945 24.596-9.128c0-.401-.01-.8-.029-1.194 10.211 2.363 15.547 5.885 15.547 8.395 0 4.453-15.627 10.918-40.113 10.918-24.488 0-40.115-6.465-40.115-10.918-.002-2.496 5.336-6.033 15.547-8.395zM36.054 69.916a2.513 2.513 0 1 0-5.026 0v6.752a2.512 2.512 0 0 0 5.026 0v-6.752zM33.54 81.029a2.513 2.513 0 0 0-2.512 2.514v4.295a2.513 2.513 0 1 0 5.026 0v-4.295a2.513 2.513 0 0 0-2.514-2.514zM58.142 77.545a2.513 2.513 0 0 0-2.512 2.514v7.779a2.513 2.513 0 1 0 5.026 0v-7.779a2.515 2.515 0 0 0-2.514-2.514zM60.655 69.916a2.513 2.513 0 1 0-5.026 0v3.266a2.513 2.513 0 1 0 5.026 0v-3.266zM48.479 69.857a2.512 2.512 0 0 0-5.026 0v2.814a2.513 2.513 0 1 0 5.026 0v-2.814zM48.479 79.141a2.512 2.512 0 0 0-5.026 0v2.168a2.513 2.513 0 0 0 5.026 0v-2.168zM45.968 85.326a2.513 2.513 0 0 0-2.514 2.512v.344a2.513 2.513 0 0 0 5.026 0v-.344a2.514 2.514 0 0 0-2.512-2.512z" fill="#ffffff" class="fill-000000"></path><path d="M66.313 48.984c.18 0 .361-.02.543-.059l.055-.012a2.515 2.515 0 0 0-.986-4.93l-.15.031a2.514 2.514 0 0 0 .538 4.97zM45.765 52.174h.139c1.389 0 2.479-1.125 2.479-2.512 0-1.389-1.158-2.514-2.547-2.514h-.035a2.514 2.514 0 0 0-.036 5.026zM35.128 51.488l.096.01a2.513 2.513 0 0 0 .57-4.992l-.111-.012a2.513 2.513 0 0 0-.555 4.994zM24.64 49.854l.08.016c.166.033.332.051.496.051a2.515 2.515 0 0 0 .49-4.98l-.123-.023a2.514 2.514 0 0 0-2.939 1.999 2.51 2.51 0 0 0 1.996 2.937zM56.151 51.256c.152 0 .307-.014.463-.043l.102-.02a2.51 2.51 0 0 0 2.012-2.928 2.51 2.51 0 0 0-2.93-2.012l-.102.02a2.51 2.51 0 0 0-2.012 2.928 2.514 2.514 0 0 0 2.467 2.055z" fill="#ffffff" class="fill-000000"></path></svg>